<?xml version="1.0" encoding="utf-8"?>
<!-- Generator: Adobe Illustrator 24.1.2, SVG Export Plug-In . SVG Version: 6.00 Build 0)  -->
<svg version="1.1" id="レイヤー_1" xmlns="http://www.w3.org/2000/svg" xmlns:xlink="http://www.w3.org/1999/xlink" x="0px"
	 y="0px" viewBox="0 0 437.7 70.2" style="enable-background:new 0 0 437.7 70.2;" xml:space="preserve">
<style type="text/css">
	.st0{enable-background:new    ;}
</style>
<g class="st0">
	<path d="M25.2,24.3h6.6v28.5h-6.6v-3c-2.7,2.5-5.6,3.8-8.8,3.8c-3.9,0-7.2-1.4-9.8-4.3c-2.6-2.9-3.8-6.5-3.8-10.9
		c0-4.3,1.3-7.8,3.8-10.7c2.6-2.9,5.8-4.3,9.6-4.3c3.3,0,6.3,1.4,8.9,4.1V24.3z M9.6,38.5c0,2.7,0.7,5,2.2,6.7
		c1.5,1.7,3.4,2.6,5.7,2.6c2.4,0,4.4-0.8,5.9-2.5c1.5-1.7,2.3-3.9,2.3-6.6s-0.8-4.9-2.3-6.6c-1.5-1.7-3.5-2.5-5.9-2.5
		c-2.3,0-4.2,0.9-5.7,2.6C10.3,33.8,9.6,35.9,9.6,38.5z"/>
</g>
<g class="st0">
	<path d="M50.4,3.4v30.2l9.3-9.2h8.8l-12.4,12l13.3,16.6h-8.6l-9.4-12l-1.1,1.1v11h-6.6V3.4H50.4z"/>
</g>
<g class="st0">
	<path d="M78.7,12.4c0-1.2,0.4-2.1,1.3-3c0.8-0.8,1.8-1.3,3-1.3c1.2,0,2.2,0.4,3,1.3c0.8,0.8,1.3,1.8,1.3,3s-0.4,2.2-1.3,3
		c-0.8,0.8-1.8,1.3-3,1.3c-1.2,0-2.2-0.4-3-1.3C79.1,14.7,78.7,13.6,78.7,12.4z M86.3,24.3v28.5h-6.6V24.3H86.3z"/>
</g>
<g class="st0">
	<path d="M151.7,29.2l-5.4,2.9c-0.9-1.8-1.9-2.6-3.2-2.6c-0.6,0-1.1,0.2-1.6,0.6c-0.4,0.4-0.6,0.9-0.6,1.5c0,1.1,1.3,2.2,3.8,3.3
		c3.5,1.5,5.8,2.9,7.1,4.2c1.2,1.3,1.8,3,1.8,5.1c0,2.8-1,5.1-3,6.9c-2,1.8-4.4,2.6-7.1,2.6c-4.8,0-8.2-2.3-10.2-7l5.6-2.6
		c0.8,1.4,1.4,2.2,1.8,2.6c0.8,0.7,1.8,1.1,2.9,1.1c2.2,0,3.3-1,3.3-3c0-1.2-0.9-2.3-2.6-3.3c-0.7-0.3-1.3-0.7-2-1
		c-0.7-0.3-1.3-0.6-2-1c-1.9-0.9-3.3-1.9-4-2.8c-1-1.2-1.5-2.7-1.5-4.6c0-2.5,0.8-4.5,2.5-6.2c1.7-1.6,3.8-2.4,6.3-2.4
		C147.2,23.5,150,25.4,151.7,29.2z"/>
</g>
<g class="st0">
	<path d="M169.8,68.4h-6.6V24.3h6.6v3.1c2.6-2.6,5.5-3.9,8.8-3.9c3.9,0,7.2,1.4,9.7,4.3c2.6,2.9,3.9,6.5,3.9,10.9
		c0,4.3-1.3,7.8-3.8,10.7c-2.5,2.8-5.7,4.2-9.6,4.2c-3.3,0-6.3-1.3-9-4V68.4z M185.4,38.7c0-2.7-0.7-5-2.2-6.7
		c-1.5-1.7-3.4-2.6-5.7-2.6c-2.4,0-4.4,0.8-5.9,2.5c-1.5,1.7-2.3,3.9-2.3,6.6c0,2.7,0.8,4.9,2.3,6.6c1.5,1.7,3.4,2.5,5.9,2.5
		c2.3,0,4.2-0.9,5.7-2.6C184.7,43.5,185.4,41.3,185.4,38.7z"/>
	<path d="M222.2,24.3h6.6v28.5h-6.6v-3c-2.7,2.5-5.6,3.8-8.8,3.8c-3.9,0-7.2-1.4-9.8-4.3c-2.6-2.9-3.8-6.5-3.8-10.9
		c0-4.3,1.3-7.8,3.8-10.7c2.6-2.9,5.8-4.3,9.6-4.3c3.3,0,6.3,1.4,8.9,4.1V24.3z M206.5,38.5c0,2.7,0.7,5,2.2,6.7
		c1.5,1.7,3.4,2.6,5.7,2.6c2.4,0,4.4-0.8,5.9-2.5c1.5-1.7,2.3-3.9,2.3-6.6s-0.8-4.9-2.3-6.6c-1.5-1.7-3.5-2.5-5.9-2.5
		c-2.3,0-4.2,0.9-5.7,2.6C207.3,33.8,206.5,35.9,206.5,38.5z"/>
</g>
<g class="st0">
	<path d="M262.1,25.5v8.8c-1.5-1.8-2.9-3.1-4-3.8c-1.2-0.7-2.5-1.1-4.1-1.1c-2.5,0-4.5,0.9-6.2,2.6s-2.5,3.9-2.5,6.5
		c0,2.7,0.8,4.9,2.4,6.6c1.6,1.7,3.6,2.6,6.1,2.6c1.6,0,3-0.3,4.2-1c1.2-0.7,2.5-2,4.1-3.9v8.7c-2.7,1.4-5.4,2.1-8,2.1
		c-4.4,0-8.1-1.4-11.1-4.3c-3-2.9-4.5-6.4-4.5-10.7s1.5-7.9,4.5-10.8c3-2.9,6.7-4.4,11.1-4.4C256.9,23.5,259.6,24.2,262.1,25.5z"/>
</g>
<g class="st0">
	<path d="M298,40.1h-20.4c0.2,2.3,0.9,4.2,2.3,5.6c1.3,1.4,3.1,2.1,5.2,2.1c1.6,0,3-0.4,4.1-1.2c1.1-0.8,2.3-2.2,3.6-4.3l5.6,3.1
		c-0.9,1.5-1.8,2.7-2.7,3.8c-1,1-2,1.9-3.1,2.6c-1.1,0.7-2.3,1.2-3.5,1.5c-1.3,0.3-2.6,0.5-4.1,0.5c-4.3,0-7.7-1.4-10.3-4.1
		c-2.6-2.8-3.9-6.4-3.9-11c0-4.5,1.2-8.2,3.8-11c2.5-2.8,5.9-4.1,10-4.1c4.2,0,7.5,1.3,10,4c2.4,2.7,3.6,6.3,3.6,11L298,40.1z
		 M291.3,34.7c-0.9-3.5-3.1-5.3-6.7-5.3c-0.8,0-1.6,0.1-2.3,0.4s-1.3,0.6-1.9,1.1c-0.6,0.5-1.1,1-1.5,1.7s-0.7,1.4-0.9,2.2H291.3z"
		/>
</g>
<g class="st0">
	<path d="M329.9,25.5v8.8c-1.5-1.8-2.9-3.1-4-3.8c-1.2-0.7-2.5-1.1-4.1-1.1c-2.5,0-4.5,0.9-6.2,2.6s-2.5,3.9-2.5,6.5
		c0,2.7,0.8,4.9,2.4,6.6c1.6,1.7,3.6,2.6,6.1,2.6c1.6,0,3-0.3,4.2-1c1.2-0.7,2.5-2,4.1-3.9v8.7c-2.7,1.4-5.4,2.1-8,2.1
		c-4.4,0-8.1-1.4-11.1-4.3c-3-2.9-4.5-6.4-4.5-10.7s1.5-7.9,4.5-10.8s6.7-4.4,11.1-4.4C324.7,23.5,327.4,24.2,329.9,25.5z"/>
</g>
<g class="st0">
	<path d="M343.5,24.3h6.6v2.5c1.2-1.3,2.3-2.1,3.2-2.6c1-0.5,2.1-0.7,3.4-0.7c1.7,0,3.6,0.6,5.4,1.7l-3,6c-1.2-0.9-2.5-1.3-3.7-1.3
		c-3.6,0-5.4,2.7-5.4,8.1v14.8h-6.6V24.3z"/>
</g>
<g class="st0">
	<path d="M396.2,40.1h-20.4c0.2,2.3,0.9,4.2,2.3,5.6c1.3,1.4,3.1,2.1,5.2,2.1c1.6,0,3-0.4,4.1-1.2c1.1-0.8,2.3-2.2,3.6-4.3l5.6,3.1
		c-0.9,1.5-1.8,2.7-2.7,3.8s-2,1.9-3.1,2.6s-2.3,1.2-3.5,1.5s-2.6,0.5-4.1,0.5c-4.3,0-7.7-1.4-10.3-4.1c-2.6-2.8-3.9-6.4-3.9-11
		c0-4.5,1.2-8.2,3.8-11c2.5-2.8,5.9-4.1,10-4.1c4.2,0,7.5,1.3,10,4c2.4,2.7,3.6,6.3,3.6,11L396.2,40.1z M389.5,34.7
		c-0.9-3.5-3.1-5.3-6.7-5.3c-0.8,0-1.6,0.1-2.3,0.4s-1.3,0.6-1.9,1.1c-0.6,0.5-1.1,1-1.5,1.7s-0.7,1.4-0.9,2.2H389.5z"/>
</g>
<g class="st0">
	<path d="M426.9,24.3h6.6v28.5h-6.6v-3c-2.7,2.5-5.6,3.8-8.8,3.8c-3.9,0-7.2-1.4-9.8-4.3c-2.6-2.9-3.8-6.5-3.8-10.9
		c0-4.3,1.3-7.8,3.8-10.7c2.6-2.9,5.8-4.3,9.6-4.3c3.3,0,6.3,1.4,8.9,4.1V24.3z M411.3,38.5c0,2.7,0.7,5,2.2,6.7
		c1.5,1.7,3.4,2.6,5.7,2.6c2.4,0,4.4-0.8,5.9-2.5c1.5-1.7,2.3-3.9,2.3-6.6s-0.8-4.9-2.3-6.6c-1.5-1.7-3.5-2.5-5.9-2.5
		c-2.3,0-4.2,0.9-5.7,2.6C412,33.8,411.3,35.9,411.3,38.5z"/>
</g>
</svg>
