<?xml version="1.0" encoding="utf-8"?>
<!-- Generator: Adobe Illustrator 25.2.3, SVG Export Plug-In . SVG Version: 6.00 Build 0)  -->
<svg version="1.1" id="レイヤー_1" xmlns="http://www.w3.org/2000/svg" xmlns:xlink="http://www.w3.org/1999/xlink" x="0px"
	 y="0px" viewBox="0 0 415.55 65.01" style="enable-background:new 0 0 415.55 65.01;" xml:space="preserve">
<g>
	<path d="M22.38,20.95H29v28.54h-6.62v-2.99c-2.71,2.54-5.64,3.81-8.76,3.81c-3.95,0-7.21-1.43-9.79-4.28
		C1.28,43.12,0,39.48,0,35.13c0-4.28,1.28-7.84,3.84-10.69c2.56-2.85,5.76-4.28,9.61-4.28c3.32,0,6.3,1.37,8.94,4.1V20.95z
		 M6.74,35.13c0,2.73,0.73,4.96,2.2,6.68c1.5,1.74,3.4,2.61,5.68,2.61c2.44,0,4.41-0.84,5.92-2.52c1.5-1.74,2.26-3.95,2.26-6.62
		c0-2.68-0.75-4.88-2.26-6.62c-1.5-1.7-3.46-2.55-5.86-2.55c-2.27,0-4.16,0.86-5.68,2.58C7.49,30.42,6.74,32.57,6.74,35.13z"/>
	<path d="M45.12,0v30.18l9.29-9.23h8.85L50.86,32.93l13.3,16.55H55.6l-9.43-12.04l-1.05,1.05v10.99h-6.59V0H45.12z"/>
	<path d="M71.01,9.08c0-1.15,0.42-2.15,1.26-2.99c0.84-0.84,1.85-1.26,3.02-1.26c1.19,0,2.21,0.42,3.05,1.26
		c0.84,0.82,1.26,1.83,1.26,3.02c0,1.19-0.42,2.21-1.26,3.05c-0.82,0.84-1.83,1.26-3.02,1.26c-1.19,0-2.21-0.42-3.05-1.26
		C71.43,11.32,71.01,10.29,71.01,9.08z M78.6,20.95v28.54h-6.59V20.95H78.6z"/>
	<path d="M142.96,25.81l-5.45,2.9c-0.86-1.76-1.92-2.64-3.19-2.64c-0.61,0-1.12,0.2-1.55,0.6c-0.43,0.4-0.64,0.91-0.64,1.54
		c0,1.09,1.27,2.18,3.81,3.25c3.5,1.5,5.85,2.89,7.06,4.16c1.21,1.27,1.82,2.98,1.82,5.13c0,2.75-1.02,5.06-3.05,6.91
		c-1.97,1.76-4.36,2.64-7.15,2.64c-4.79,0-8.17-2.33-10.17-7l5.62-2.61c0.78,1.37,1.38,2.24,1.79,2.61c0.8,0.74,1.76,1.11,2.87,1.11
		c2.23,0,3.34-1.02,3.34-3.05c0-1.17-0.86-2.27-2.58-3.28c-0.66-0.33-1.33-0.65-1.99-0.97c-0.66-0.31-1.34-0.63-2.02-0.97
		c-1.91-0.94-3.26-1.88-4.04-2.81c-1-1.19-1.49-2.73-1.49-4.6c0-2.48,0.85-4.53,2.55-6.15c1.74-1.62,3.85-2.43,6.33-2.43
		C138.47,20.16,141.18,22.04,142.96,25.81z"/>
	<path d="M159.72,65.01h-6.59V20.95h6.59v3.11c2.6-2.6,5.55-3.9,8.85-3.9c3.93,0,7.16,1.45,9.7,4.34c2.58,2.87,3.87,6.49,3.87,10.87
		c0,4.28-1.28,7.84-3.84,10.69c-2.54,2.83-5.74,4.25-9.61,4.25c-3.34,0-6.33-1.34-8.96-4.01V65.01z M175.39,35.39
		c0-2.73-0.74-4.96-2.23-6.68c-1.5-1.74-3.4-2.61-5.68-2.61c-2.42,0-4.38,0.84-5.89,2.52c-1.5,1.68-2.26,3.89-2.26,6.62
		c0,2.68,0.75,4.88,2.26,6.62c1.48,1.7,3.44,2.55,5.86,2.55c2.29,0,4.17-0.86,5.65-2.58C174.63,40.12,175.39,37.97,175.39,35.39z"/>
	<path d="M211.34,20.95h6.62v28.54h-6.62v-2.99c-2.71,2.54-5.64,3.81-8.76,3.81c-3.95,0-7.21-1.43-9.79-4.28
		c-2.56-2.91-3.84-6.54-3.84-10.9c0-4.28,1.28-7.84,3.84-10.69c2.56-2.85,5.76-4.28,9.61-4.28c3.32,0,6.3,1.37,8.94,4.1V20.95z
		 M195.69,35.13c0,2.73,0.73,4.96,2.2,6.68c1.5,1.74,3.4,2.61,5.68,2.61c2.44,0,4.41-0.84,5.92-2.52c1.5-1.74,2.26-3.95,2.26-6.62
		c0-2.68-0.75-4.88-2.26-6.62c-1.5-1.7-3.46-2.55-5.86-2.55c-2.27,0-4.16,0.86-5.68,2.58C196.44,30.42,195.69,32.57,195.69,35.13z"
		/>
	<path d="M249.69,22.18v8.76c-1.5-1.84-2.85-3.1-4.04-3.78c-1.17-0.7-2.55-1.05-4.13-1.05c-2.48,0-4.54,0.87-6.18,2.61
		c-1.64,1.74-2.46,3.92-2.46,6.53c0,2.68,0.79,4.87,2.37,6.59c1.6,1.72,3.64,2.58,6.12,2.58c1.58,0,2.98-0.34,4.19-1.03
		c1.17-0.66,2.55-1.95,4.13-3.87v8.7c-2.68,1.39-5.35,2.08-8.03,2.08c-4.41,0-8.11-1.43-11.07-4.28c-2.97-2.87-4.45-6.44-4.45-10.69
		c0-4.26,1.5-7.85,4.51-10.78s6.7-4.39,11.07-4.39C244.53,20.16,247.19,20.83,249.69,22.18z"/>
	<path d="M285.66,36.77h-20.45c0.18,2.34,0.94,4.21,2.29,5.6c1.35,1.37,3.08,2.05,5.19,2.05c1.64,0,3-0.39,4.07-1.17
		c1.05-0.78,2.26-2.23,3.6-4.34l5.57,3.11c-0.86,1.46-1.77,2.72-2.72,3.76s-1.98,1.9-3.08,2.58s-2.28,1.17-3.54,1.48
		c-1.27,0.31-2.65,0.47-4.13,0.47c-4.26,0-7.68-1.37-10.25-4.1c-2.58-2.75-3.87-6.41-3.87-10.96c0-4.51,1.25-8.16,3.75-10.96
		c2.52-2.75,5.86-4.13,10.02-4.13c4.2,0,7.52,1.34,9.96,4.01c2.42,2.66,3.63,6.34,3.63,11.05L285.66,36.77z M278.89,31.38
		c-0.92-3.52-3.13-5.27-6.65-5.27c-0.8,0-1.55,0.12-2.26,0.37c-0.7,0.24-1.34,0.6-1.92,1.05c-0.58,0.46-1.07,1.01-1.48,1.66
		s-0.72,1.38-0.94,2.2H278.89z"/>
	<path d="M317.47,22.18v8.76c-1.5-1.84-2.85-3.1-4.04-3.78c-1.17-0.7-2.55-1.05-4.13-1.05c-2.48,0-4.54,0.87-6.18,2.61
		c-1.64,1.74-2.46,3.92-2.46,6.53c0,2.68,0.79,4.87,2.37,6.59c1.6,1.72,3.64,2.58,6.12,2.58c1.58,0,2.98-0.34,4.19-1.03
		c1.17-0.66,2.55-1.95,4.13-3.87v8.7c-2.68,1.39-5.35,2.08-8.03,2.08c-4.41,0-8.11-1.43-11.07-4.28c-2.97-2.87-4.45-6.44-4.45-10.69
		c0-4.26,1.5-7.85,4.51-10.78s6.7-4.39,11.07-4.39C312.32,20.16,314.97,20.83,317.47,22.18z"/>
	<path d="M328.66,20.95h6.59v2.55c1.21-1.27,2.29-2.14,3.22-2.61c0.96-0.49,2.09-0.73,3.4-0.73c1.74,0,3.55,0.57,5.45,1.7
		l-3.02,6.04c-1.25-0.9-2.47-1.35-3.66-1.35c-3.59,0-5.39,2.71-5.39,8.15v14.79h-6.59V20.95z"/>
	<path d="M379.49,36.77h-20.45c0.18,2.34,0.94,4.21,2.29,5.6c1.35,1.37,3.08,2.05,5.19,2.05c1.64,0,3-0.39,4.07-1.17
		c1.05-0.78,2.26-2.23,3.6-4.34l5.57,3.11c-0.86,1.46-1.77,2.72-2.72,3.76s-1.98,1.9-3.08,2.58s-2.28,1.17-3.54,1.48
		c-1.27,0.31-2.65,0.47-4.13,0.47c-4.26,0-7.68-1.37-10.25-4.1c-2.58-2.75-3.87-6.41-3.87-10.96c0-4.51,1.25-8.16,3.75-10.96
		c2.52-2.75,5.86-4.13,10.02-4.13c4.2,0,7.52,1.34,9.96,4.01c2.42,2.66,3.63,6.34,3.63,11.05L379.49,36.77z M372.72,31.38
		c-0.92-3.52-3.13-5.27-6.65-5.27c-0.8,0-1.55,0.12-2.26,0.37c-0.7,0.24-1.34,0.6-1.92,1.05c-0.58,0.46-1.07,1.01-1.48,1.66
		s-0.72,1.38-0.94,2.2H372.72z"/>
	<path d="M408.93,20.95h6.62v28.54h-6.62v-2.99c-2.71,2.54-5.63,3.81-8.76,3.81c-3.95,0-7.21-1.43-9.79-4.28
		c-2.56-2.91-3.84-6.54-3.84-10.9c0-4.28,1.28-7.84,3.84-10.69c2.56-2.85,5.76-4.28,9.61-4.28c3.32,0,6.3,1.37,8.94,4.1V20.95z
		 M393.29,35.13c0,2.73,0.73,4.96,2.2,6.68c1.5,1.74,3.4,2.61,5.68,2.61c2.44,0,4.41-0.84,5.92-2.52c1.5-1.74,2.26-3.95,2.26-6.62
		c0-2.68-0.75-4.88-2.26-6.62c-1.5-1.7-3.46-2.55-5.86-2.55c-2.27,0-4.16,0.86-5.68,2.58C394.04,30.42,393.29,32.57,393.29,35.13z"
		/>
</g>
</svg>
