<?xml version="1.0" encoding="utf-8"?>
<!-- Generator: Adobe Illustrator 25.2.3, SVG Export Plug-In . SVG Version: 6.00 Build 0)  -->
<svg version="1.1" id="レイヤー_1" xmlns="http://www.w3.org/2000/svg" xmlns:xlink="http://www.w3.org/1999/xlink" x="0px"
	 y="0px" viewBox="0 0 300 21.49" style="enable-background:new 0 0 300 21.49;" xml:space="preserve">
<g>
	<path d="M0,0.49h3.38v13.26h8.07v2.91H0V0.49z"/>
	<path d="M24.78,15.19c-1.01,1.25-2.54,1.87-4.59,1.87s-3.59-0.62-4.59-1.87c-1.01-1.25-1.51-2.74-1.51-4.5
		c0-1.72,0.5-3.22,1.51-4.48c1.01-1.26,2.54-1.9,4.59-1.9s3.59,0.63,4.59,1.9s1.51,2.76,1.51,4.48
		C26.29,12.45,25.79,13.95,24.78,15.19z M22.28,13.47c0.49-0.65,0.73-1.57,0.73-2.77c0-1.2-0.24-2.12-0.73-2.76
		c-0.49-0.65-1.19-0.97-2.11-0.97c-0.91,0-1.62,0.32-2.11,0.97c-0.49,0.65-0.74,1.57-0.74,2.76c0,1.2,0.25,2.12,0.74,2.77
		c0.49,0.65,1.2,0.97,2.11,0.97C21.09,14.44,21.79,14.12,22.28,13.47z"/>
	<path d="M36.79,4.7h3.36l-4.32,11.95h-3.29L28.25,4.7h3.51l2.49,8.82L36.79,4.7z"/>
	<path d="M51.5,4.95c0.83,0.37,1.52,0.96,2.07,1.77c0.49,0.71,0.81,1.53,0.95,2.47c0.08,0.55,0.12,1.34,0.1,2.37h-8.7
		c0.05,1.2,0.47,2.04,1.25,2.52c0.48,0.3,1.05,0.45,1.72,0.45c0.71,0,1.29-0.18,1.74-0.55c0.24-0.2,0.46-0.47,0.64-0.82h3.19
		c-0.08,0.71-0.47,1.43-1.16,2.16c-1.07,1.16-2.57,1.74-4.5,1.74c-1.59,0-2.99-0.49-4.21-1.47c-1.22-0.98-1.82-2.58-1.82-4.78
		c0-2.07,0.55-3.66,1.65-4.76s2.52-1.66,4.27-1.66C49.73,4.39,50.66,4.57,51.5,4.95z M46.82,7.65c-0.44,0.46-0.72,1.07-0.83,1.85
		h5.38c-0.06-0.83-0.33-1.46-0.83-1.89c-0.5-0.43-1.12-0.64-1.85-0.64C47.89,6.96,47.26,7.19,46.82,7.65z"/>
	<path d="M62.08,16.65h-3.12V0.49h3.12V16.65z"/>
	<path d="M67.85,18.95l0.39,0.02c0.31,0.01,0.6,0,0.88-0.03c0.28-0.04,0.51-0.12,0.7-0.25c0.18-0.12,0.35-0.38,0.51-0.78
		c0.16-0.39,0.22-0.64,0.2-0.72L66.14,4.7h3.48l2.61,8.82L74.7,4.7h3.32l-4.1,11.75c-0.79,2.27-1.42,3.67-1.88,4.22
		c-0.46,0.54-1.38,0.82-2.77,0.82c-0.28,0-0.5,0-0.67-0.01c-0.17,0-0.42-0.02-0.76-0.04V18.95z"/>
	<path d="M93.21,0.49v2.86h-4.84v13.3h-3.4V3.36h-4.86V0.49H93.21z"/>
	<path d="M100.39,3.28h-3.17V0.39h3.17V3.28z M97.22,4.7h3.17v11.95h-3.17V4.7z"/>
	<path d="M120.12,4.75c0.51,0.2,0.98,0.56,1.39,1.07c0.34,0.42,0.56,0.93,0.68,1.54c0.07,0.4,0.11,0.99,0.11,1.77l-0.02,7.53h-3.2
		V9.05c0-0.45-0.07-0.83-0.22-1.12c-0.28-0.56-0.79-0.83-1.54-0.83c-0.86,0-1.46,0.36-1.79,1.07c-0.17,0.38-0.25,0.84-0.25,1.37
		v7.12h-3.15V9.54c0-0.71-0.07-1.22-0.22-1.55c-0.26-0.58-0.78-0.87-1.55-0.87c-0.89,0-1.49,0.29-1.8,0.87
		c-0.17,0.33-0.25,0.82-0.25,1.47v7.19h-3.17V4.73h3.04v1.74c0.39-0.62,0.75-1.06,1.1-1.33c0.61-0.47,1.39-0.7,2.36-0.7
		c0.91,0,1.65,0.2,2.21,0.6c0.45,0.37,0.8,0.85,1.03,1.44c0.41-0.7,0.92-1.22,1.52-1.55c0.64-0.33,1.36-0.49,2.15-0.49
		C119.09,4.44,119.61,4.54,120.12,4.75z"/>
	<path d="M134.76,4.95c0.83,0.37,1.52,0.96,2.07,1.77c0.49,0.71,0.81,1.53,0.95,2.47c0.08,0.55,0.12,1.34,0.1,2.37h-8.7
		c0.05,1.2,0.47,2.04,1.25,2.52c0.48,0.3,1.05,0.45,1.72,0.45c0.71,0,1.29-0.18,1.74-0.55c0.24-0.2,0.46-0.47,0.64-0.82h3.19
		c-0.08,0.71-0.47,1.43-1.16,2.16c-1.07,1.16-2.57,1.74-4.5,1.74c-1.59,0-2.99-0.49-4.21-1.47c-1.22-0.98-1.82-2.58-1.82-4.78
		c0-2.07,0.55-3.66,1.65-4.76c1.1-1.1,2.52-1.66,4.27-1.66C132.99,4.39,133.93,4.57,134.76,4.95z M130.08,7.65
		c-0.44,0.46-0.72,1.07-0.83,1.85h5.38c-0.06-0.83-0.33-1.46-0.83-1.89c-0.5-0.43-1.12-0.64-1.85-0.64
		C131.15,6.96,130.53,7.19,130.08,7.65z"/>
	<path d="M144.58,12.84c0.07,0.56,0.21,0.95,0.43,1.18c0.39,0.42,1.11,0.62,2.16,0.62c0.62,0,1.11-0.09,1.47-0.27
		c0.36-0.18,0.55-0.46,0.55-0.82c0-0.35-0.15-0.62-0.44-0.8c-0.29-0.18-1.38-0.5-3.27-0.94c-1.36-0.34-2.31-0.76-2.87-1.26
		c-0.56-0.5-0.83-1.21-0.83-2.15c0-1.1,0.43-2.05,1.3-2.85c0.87-0.79,2.09-1.19,3.66-1.19c1.49,0,2.71,0.3,3.65,0.89
		c0.94,0.6,1.48,1.62,1.62,3.09h-3.12c-0.04-0.4-0.16-0.72-0.34-0.95c-0.34-0.42-0.93-0.64-1.76-0.64c-0.68,0-1.17,0.11-1.46,0.32
		c-0.29,0.21-0.43,0.46-0.43,0.75c0,0.36,0.15,0.62,0.46,0.78c0.31,0.17,1.4,0.46,3.26,0.87c1.25,0.29,2.18,0.73,2.8,1.33
		c0.61,0.6,0.92,1.35,0.92,2.25c0,1.18-0.44,2.15-1.32,2.9c-0.88,0.75-2.25,1.12-4.09,1.12c-1.88,0-3.27-0.4-4.17-1.19
		c-0.9-0.79-1.35-1.8-1.35-3.03H144.58z"/>
	<path d="M168,0.49h3.82l5.72,16.16h-3.66l-1.07-3.32h-5.95l-1.1,3.32h-3.53L168,0.49z M167.78,10.55h4.14l-2.04-6.36L167.78,10.55z
		"/>
	<path d="M187.78,4.42c0.04,0,0.13,0.01,0.27,0.02v3.2c-0.2-0.02-0.37-0.04-0.53-0.04c-0.15-0.01-0.28-0.01-0.37-0.01
		c-1.26,0-2.1,0.41-2.53,1.23c-0.24,0.46-0.36,1.17-0.36,2.13v5.71h-3.15V4.7h2.98v2.08c0.48-0.8,0.9-1.34,1.26-1.63
		c0.58-0.49,1.34-0.73,2.28-0.73C187.69,4.42,187.74,4.42,187.78,4.42z"/>
	<path d="M199.91,4.95c0.83,0.37,1.52,0.96,2.07,1.77c0.49,0.71,0.81,1.53,0.95,2.47c0.08,0.55,0.12,1.34,0.1,2.37h-8.7
		c0.05,1.2,0.47,2.04,1.25,2.52c0.48,0.3,1.05,0.45,1.72,0.45c0.71,0,1.29-0.18,1.74-0.55c0.24-0.2,0.46-0.47,0.64-0.82h3.19
		c-0.08,0.71-0.47,1.43-1.16,2.16c-1.07,1.16-2.57,1.74-4.5,1.74c-1.59,0-2.99-0.49-4.21-1.47c-1.22-0.98-1.82-2.58-1.82-4.78
		c0-2.07,0.55-3.66,1.65-4.76c1.1-1.1,2.52-1.66,4.27-1.66C198.14,4.39,199.08,4.57,199.91,4.95z M195.24,7.65
		c-0.44,0.46-0.72,1.07-0.83,1.85h5.38c-0.06-0.83-0.33-1.46-0.83-1.89c-0.5-0.43-1.12-0.64-1.85-0.64
		C196.3,6.96,195.68,7.19,195.24,7.65z"/>
	<path d="M226.24,15.22c-1.22,1.26-2.99,1.89-5.3,1.89c-2.31,0-4.08-0.63-5.3-1.89c-1.64-1.54-2.46-3.76-2.46-6.67
		c0-2.96,0.82-5.18,2.46-6.67c1.22-1.26,2.99-1.89,5.3-1.89c2.31,0,4.07,0.63,5.3,1.89c1.63,1.48,2.44,3.71,2.44,6.67
		C228.69,11.45,227.87,13.68,226.24,15.22z M224.13,12.76c0.79-0.99,1.18-2.39,1.18-4.21c0-1.81-0.39-3.21-1.18-4.2
		c-0.79-0.99-1.85-1.49-3.19-1.49s-2.4,0.49-3.2,1.48c-0.8,0.99-1.2,2.39-1.2,4.21s0.4,3.22,1.2,4.21s1.86,1.48,3.2,1.48
		S223.34,13.75,224.13,12.76z"/>
	<path d="M241.99,5.39c0.78,0.65,1.17,1.72,1.17,3.22v8.05h-3.2V9.39c0-0.63-0.08-1.11-0.25-1.45c-0.3-0.61-0.89-0.92-1.74-0.92
		c-1.05,0-1.77,0.45-2.17,1.35c-0.2,0.48-0.3,1.08-0.3,1.82v6.47h-3.12V4.73h3.03v1.74c0.4-0.61,0.78-1.06,1.14-1.33
		c0.64-0.48,1.45-0.72,2.43-0.72C240.21,4.42,241.21,4.74,241.99,5.39z"/>
	<path d="M251,11.67c0.1,0.74,0.31,1.29,0.62,1.66c0.56,0.67,1.52,1,2.88,1c0.81,0,1.47-0.09,1.98-0.26
		c0.96-0.34,1.44-0.96,1.44-1.87c0-0.53-0.24-0.95-0.71-1.24c-0.47-0.29-1.22-0.54-2.24-0.76l-1.75-0.38
		c-1.72-0.38-2.9-0.79-3.54-1.24c-1.09-0.75-1.63-1.91-1.63-3.5c0-1.45,0.53-2.65,1.6-3.61c1.07-0.96,2.63-1.44,4.7-1.44
		c1.72,0,3.19,0.45,4.41,1.35c1.22,0.9,1.86,2.21,1.91,3.93h-3.25c-0.06-0.97-0.49-1.66-1.3-2.07c-0.54-0.27-1.21-0.41-2.01-0.41
		c-0.89,0-1.6,0.18-2.14,0.53c-0.53,0.35-0.8,0.84-0.8,1.47c0,0.58,0.26,1.01,0.79,1.29c0.34,0.19,1.05,0.41,2.15,0.67l2.84,0.67
		c1.24,0.29,2.17,0.68,2.8,1.17c0.96,0.76,1.44,1.86,1.44,3.3c0,1.48-0.57,2.7-1.71,3.68c-1.14,0.98-2.75,1.46-4.84,1.46
		c-2.13,0-3.8-0.48-5.02-1.44c-1.22-0.96-1.83-2.28-1.83-3.96H251z"/>
	<path d="M268.75,3.28h-3.17V0.39h3.17V3.28z M265.58,4.7h3.17v11.95h-3.17V4.7z"/>
	<path d="M279.91,4.9c0.56,0.32,1.02,0.76,1.37,1.32v-5.7h3.17v16.14h-3.04V15c-0.45,0.71-0.95,1.22-1.52,1.55
		c-0.57,0.32-1.28,0.48-2.13,0.48c-1.4,0-2.57-0.56-3.52-1.69c-0.95-1.13-1.43-2.58-1.43-4.35c0-2.04,0.47-3.64,1.41-4.81
		c0.94-1.17,2.19-1.75,3.77-1.75C278.71,4.42,279.35,4.58,279.91,4.9z M280.68,13.41c0.46-0.66,0.69-1.51,0.69-2.55
		c0-1.46-0.37-2.51-1.11-3.14c-0.45-0.38-0.98-0.57-1.58-0.57c-0.91,0-1.58,0.35-2.01,1.04c-0.43,0.69-0.64,1.55-0.64,2.57
		c0,1.1,0.22,1.99,0.65,2.65c0.43,0.66,1.09,0.99,1.98,0.99C279.55,14.4,280.22,14.07,280.68,13.41z"/>
	<path d="M296.88,4.95c0.83,0.37,1.52,0.96,2.07,1.77c0.49,0.71,0.81,1.53,0.95,2.47c0.08,0.55,0.12,1.34,0.1,2.37h-8.7
		c0.05,1.2,0.47,2.04,1.25,2.52c0.48,0.3,1.05,0.45,1.72,0.45c0.71,0,1.29-0.18,1.74-0.55c0.24-0.2,0.46-0.47,0.64-0.82h3.19
		c-0.08,0.71-0.47,1.43-1.16,2.16c-1.07,1.16-2.57,1.74-4.5,1.74c-1.59,0-2.99-0.49-4.21-1.47c-1.22-0.98-1.82-2.58-1.82-4.78
		c0-2.07,0.55-3.66,1.65-4.76c1.1-1.1,2.52-1.66,4.27-1.66C295.11,4.39,296.04,4.57,296.88,4.95z M292.2,7.65
		c-0.44,0.46-0.72,1.07-0.83,1.85h5.38c-0.06-0.83-0.33-1.46-0.83-1.89c-0.5-0.43-1.12-0.64-1.85-0.64
		C293.26,6.96,292.64,7.19,292.2,7.65z"/>
</g>
</svg>
